<svg width="264" height="47" viewBox="8 0 264 47" fill="none" xmlns="http://www.w3.org/2000/svg">
<path d="M33.2311 29.4558C31.0105 26.9077 28.8206 24.3881 26.622 21.8763C26.2346 21.4337 25.8274 21.0057 25.4009 20.601C24.0803 19.3479 22.0557 19.4257 20.8828 20.7593C19.8012 21.989 19.9737 23.9054 21.2613 24.9649C22.6146 26.0785 24.6106 25.8521 25.7167 24.459C25.7773 24.3827 25.8326 24.3022 25.9431 24.152C28.2781 26.8308 30.5914 29.4847 32.9191 32.1552C30.7631 34.2147 28.4967 36.0411 25.6828 37.0447C22.7822 38.0793 19.8847 37.9189 17.1644 36.5653C12.5805 34.2844 9.60697 30.6115 8.83625 25.4989C8.03912 20.211 9.83736 15.7587 13.8874 12.252C15.8938 10.5147 18.2066 9.35993 20.7801 8.71229C21.1336 8.62333 21.351 8.67256 21.5937 8.94692C29.9204 18.3602 38.2542 27.7672 46.5863 37.1756C46.6897 37.2924 46.7844 37.4168 46.9274 37.5919C46.7573 37.6141 46.6368 37.6431 46.5162 37.6436C44.6318 37.6526 42.7472 37.6721 40.8631 37.648C40.5964 37.6446 40.2545 37.4943 40.079 37.2955C37.7918 34.7049 35.5284 32.0933 33.2311 29.4558Z" fill="#D42E12"/>
<path d="M60.6876 20.3646C62.1294 29.6693 55.5012 35.916 48.7544 37.4818C48.556 37.5278 48.2268 37.404 48.086 37.2456C43.1214 31.6579 38.1721 26.0564 33.2205 20.4571C29.9883 16.8022 26.7557 13.1477 23.5239 9.49254C23.3226 9.26485 23.1266 9.03237 22.8359 8.69506C24.1065 8.69506 25.2465 8.69601 26.3866 8.69473C27.1857 8.69384 27.9865 8.72125 28.7831 8.67526C29.2437 8.64868 29.5299 8.81226 29.8229 9.15046C34.3211 14.3426 38.8293 19.5261 43.3429 24.7048C43.9575 25.41 44.5823 26.122 45.5269 26.4066C46.9811 26.8446 48.5416 26.1736 49.181 24.8416C49.7937 23.5654 49.3934 22.032 48.2286 21.1931C46.9868 20.2987 45.2751 20.4336 44.2191 21.5144C44.0573 21.6801 43.9162 21.8661 43.7158 22.1009C41.4192 19.461 39.1338 16.834 36.7616 14.1072C37.8667 13.1997 38.9217 12.2562 40.0553 11.4198C41.9758 10.0028 44.0781 8.9414 46.4946 8.72377C49.9832 8.40957 53.0225 9.53177 55.6323 11.8258C58.223 14.1029 60.0191 16.8743 60.6876 20.3646Z" fill="#D42E12"/>
<path d="M71.0838 9.68927C74.0731 8.54917 77.0274 8.50787 79.9707 9.43343C82.6787 10.285 84.2059 12.273 84.2467 15.1149C84.3156 19.9113 84.3494 24.7118 84.2138 29.5054C84.1756 30.8561 83.4954 32.1886 83.0318 33.7997C83.6717 33.9144 84.5744 34.0761 85.5557 34.252C85.5557 35.3738 85.5557 36.544 85.5557 37.8002C83.1725 37.8638 80.8186 38.0318 79.4991 35.3888C77.095 35.8947 74.6841 35.9946 72.2913 35.3408C69.2375 34.5063 67.5716 32.5122 67.5196 29.3411C67.4428 24.6573 67.4755 19.9712 67.5103 15.2865C67.5292 12.7423 68.6684 10.8402 71.0838 9.68927ZM73.0363 24.8559C73.0392 26.4671 73.0035 28.0795 73.056 29.6891C73.1073 31.262 74.0621 32.0117 75.8775 32.0136C77.7078 32.0156 78.677 31.2857 78.6893 29.6983C78.7276 24.7528 78.7298 19.8065 78.6638 14.8615C78.6559 14.2712 78.2902 13.4956 77.8313 13.1398C76.7787 12.3233 75.4961 12.3869 74.3036 12.8828C73.208 13.3385 73.0275 14.3396 73.0321 15.4132C73.0452 18.4856 73.0364 21.5582 73.0363 24.8559Z" fill="#D42E12"/>
<path d="M177.13 32.6678C175.546 34.683 173.353 35.1874 171.075 35.2668C167.969 35.3749 164.857 35.2937 161.662 35.2937C161.662 26.6067 161.662 17.9342 161.662 9.20254C161.745 9.17435 161.88 9.08714 162.014 9.08839C165.311 9.11931 168.612 9.06724 171.903 9.22379C175.298 9.38531 177.463 11.1264 178.074 13.9447C178.199 14.5237 178.218 15.1342 178.22 15.7304C178.231 20.0775 178.304 24.4269 178.178 28.7704C178.14 30.0565 177.528 31.3258 177.13 32.6678ZM167.13 29.354C167.13 30.0555 167.13 30.757 167.13 31.505C168.353 31.505 169.472 31.5613 170.583 31.4901C171.832 31.41 172.666 30.6821 172.683 29.4224C172.748 24.6263 172.747 19.8285 172.69 15.0322C172.675 13.7555 171.937 13.04 170.637 12.9071C169.501 12.7909 168.344 12.8828 167.13 12.8828C167.13 18.3463 167.13 23.7384 167.13 29.354Z" fill="#17161E"/>
<path d="M93.911 35.65C89.6637 35.0205 87.7548 32.8407 87.7482 28.6601C87.7386 22.5482 87.7457 16.4362 87.7456 10.3243C87.7456 9.99319 87.7456 9.66208 87.7456 9.26709C89.6179 9.26709 91.3945 9.26709 93.2945 9.26709C93.2945 9.68843 93.2945 10.0886 93.2945 10.4888C93.2946 16.6757 93.2912 22.8626 93.2964 29.0495C93.2986 31.534 95.1058 32.7218 97.4601 31.813C98.6416 31.3568 98.9067 30.3918 98.9088 29.2772C98.9141 26.5024 98.9111 23.7277 98.9112 20.953C98.9114 17.0917 98.9113 13.2305 98.9113 9.28384C100.647 9.28384 102.35 9.28384 104.209 9.28384C104.209 9.6158 104.209 9.97425 104.209 10.3327C104.209 16.3321 104.112 22.3336 104.237 28.3304C104.354 33.9515 101.002 35.4027 97.3748 35.7253C96.263 35.8242 95.131 35.6965 93.911 35.65Z" fill="#D42E12"/>
<path d="M193.614 10.2017C197.176 8.21982 200.788 8.22062 204.382 9.73795C206.176 10.495 207.258 12.0046 207.489 13.9875C207.622 15.1281 207.631 16.283 207.699 17.4913C205.878 17.4913 204.204 17.4913 202.373 17.4913C202.373 16.56 202.441 15.6247 202.358 14.7029C202.217 13.1302 201.243 12.4236 199.442 12.473C197.702 12.5206 196.734 13.2455 196.717 14.8031C196.661 19.7544 196.661 24.7072 196.72 29.6585C196.738 31.1771 197.772 31.9186 199.498 31.9368C201.309 31.9559 202.278 31.255 202.362 29.6525C202.454 27.9006 202.383 26.1401 202.383 24.3049C201.499 24.3049 200.646 24.3049 199.713 24.3049C199.713 23.0176 199.713 21.8075 199.713 20.5439C202.327 20.5439 204.903 20.5439 207.565 20.5439C207.592 20.8208 207.642 21.1055 207.643 21.3903C207.649 23.8663 207.661 26.3426 207.643 28.8185C207.616 32.5226 205.937 34.6157 202.315 35.3834C200.007 35.8726 197.69 35.8377 195.427 35.1078C192.75 34.2446 191.261 32.3279 191.229 29.5156C191.174 24.6392 191.2 19.7617 191.221 14.8849C191.229 12.9733 191.974 11.3945 193.614 10.2017Z" fill="#17161E"/>
<path d="M147.276 30.2317C146.411 28.083 145.582 26.0135 144.687 23.7815C143.48 25.5714 142.14 27.017 142.404 29.3143C142.628 31.2687 142.45 33.2694 142.45 35.3234C140.618 35.3234 138.873 35.3234 137.048 35.3234C137.048 26.6712 137.048 17.996 137.048 9.25981C138.799 9.25981 140.544 9.25981 142.428 9.25981C142.428 12.7838 142.428 16.3071 142.428 19.8304C142.502 19.8492 142.576 19.8679 142.65 19.8867C142.851 19.5954 143.063 19.3104 143.252 19.0117C145.161 16.0084 147.079 13.011 148.96 9.99078C149.312 9.42591 149.676 9.15032 150.38 9.18045C151.829 9.24257 153.283 9.19914 154.918 9.19914C154.651 9.64375 154.483 9.95574 154.285 10.247C152.537 12.8184 150.802 15.3995 149.017 17.9455C148.588 18.5579 148.497 19.043 148.794 19.7678C150.771 24.5776 152.689 29.4117 154.624 34.2386C154.76 34.5776 154.883 34.9216 155.063 35.3955C153.218 35.3955 151.499 35.4239 149.784 35.3641C149.533 35.3553 149.195 34.9692 149.072 34.6827C148.453 33.2391 147.893 31.7706 147.276 30.2317Z" fill="#D42E12"/>
<path d="M247.769 30.5838C247.589 30.379 247.424 30.1824 247.257 30.1805C245.346 30.1587 243.435 30.1666 241.44 30.1666C241.095 31.8783 240.757 33.5536 240.412 35.2666C238.721 35.2666 237.084 35.2666 235.311 35.2666C237.212 26.5407 239.105 17.8561 241.018 9.07972C243.381 9.07972 245.696 9.05609 248.009 9.11683C248.236 9.12281 248.581 9.61743 248.651 9.93404C250.038 16.1839 251.39 22.4413 252.753 28.6964C253.222 30.8525 253.7 33.0067 254.193 35.2478C252.329 35.2478 250.553 35.2478 248.694 35.2478C248.395 33.7475 248.089 32.215 247.769 30.5838ZM244.951 26.6022C245.613 26.6022 246.276 26.6022 247.031 26.6022C246.204 22.251 245.405 18.0419 244.606 13.8328C244.551 13.8374 244.497 13.842 244.442 13.8467C243.661 18.0546 242.88 22.2626 242.074 26.6022C243.025 26.6022 243.876 26.6022 244.951 26.6022Z" fill="#17161E"/>
<path d="M118.733 11.2272C119.759 10.5602 120.663 9.7505 121.721 9.39243C124.267 8.5301 126.89 8.5756 129.457 9.40939C132.122 10.275 133.563 12.2583 133.622 15.0374C133.642 15.9725 133.625 16.9084 133.625 18.0162C132.746 18.0162 131.903 18.0162 131.059 18.0162C130.235 18.0162 129.412 18.0162 128.431 18.0162C128.431 17.0144 128.449 16.0546 128.427 15.0956C128.389 13.3596 127.533 12.5833 125.689 12.58C123.829 12.5767 122.951 13.311 122.939 15.065C122.905 19.9046 122.904 24.7448 122.941 29.5844C122.954 31.3407 123.812 32.0276 125.726 32.0132C127.583 31.9992 128.4 31.2454 128.428 29.4792C128.448 28.2468 128.432 27.0138 128.432 25.7122C130.161 25.7122 131.827 25.7122 133.527 25.7122C133.527 27.3854 133.707 29.0803 133.485 30.7209C133.155 33.1583 131.506 34.616 129.211 35.29C126.746 36.0142 124.24 36.0014 121.774 35.2815C118.954 34.4581 117.424 32.4053 117.409 29.456C117.384 24.6912 117.398 19.9263 117.404 15.1614C117.405 13.7349 117.772 12.4209 118.733 11.2272Z" fill="#D42E12"/>
<path d="M219.404 9.30565C219.647 9.16164 219.861 9.08136 220.075 9.08108C225.291 9.07407 230.507 9.0751 235.723 9.07744C235.905 9.07752 236.087 9.10566 236.342 9.12681C236.342 10.3402 236.342 11.5182 236.342 12.7992C234.483 12.7992 232.627 12.7992 230.661 12.7992C230.661 20.3422 230.661 27.7847 230.661 35.2648C228.769 35.2648 226.99 35.2648 225.127 35.2648C225.127 27.7924 225.127 20.3742 225.127 12.8515C223.188 12.8515 221.33 12.8515 219.375 12.8515C219.375 11.6352 219.375 10.521 219.404 9.30565Z" fill="#17161E"/>
<path d="M256.844 30.5969C256.844 23.4006 256.844 16.317 256.844 9.15479C258.699 9.15479 260.478 9.15479 262.347 9.15479C262.347 16.5715 262.347 23.979 262.347 31.4837C265.375 31.4837 268.316 31.4837 271.347 31.4837C271.347 32.7856 271.347 33.9944 271.347 35.2623C266.578 35.2623 261.79 35.2623 256.844 35.2623C256.844 33.7547 256.844 32.2321 256.844 30.5969Z" fill="#17161E"/>
<path d="M216.697 15.737C216.697 22.2968 216.697 28.744 216.697 35.2544C214.858 35.2544 213.078 35.2544 211.25 35.2544C211.25 26.5581 211.25 17.8732 211.25 9.13428C213.057 9.13428 214.805 9.13428 216.697 9.13428C216.697 11.3071 216.697 13.4658 216.697 15.737Z" fill="#17161E"/>
<path d="M187.452 17.313C187.452 23.3447 187.452 29.2638 187.452 35.2502C185.628 35.2502 183.853 35.2502 182.024 35.2502C182.024 26.5488 182.024 17.8707 182.024 9.13623C183.811 9.13623 185.558 9.13623 187.452 9.13623C187.452 11.8361 187.452 14.5183 187.452 17.313Z" fill="#17161E"/>
<path d="M108.24 35.2668C108.17 26.5678 108.17 17.9545 108.17 9.27051C109.979 9.27051 111.751 9.27051 113.571 9.27051C113.571 17.9583 113.571 26.5991 113.571 35.3524C111.797 35.3524 110.054 35.3524 108.24 35.2668Z" fill="#D42E12"/>
</svg>
